<svg width="509" height="53" viewBox="0 0 509 53" fill="none"
  xmlns="http://www.w3.org/2000/svg">
  <path d="M13.0528 44.7058C15.7195 44.7058 17.1861 43.5058 17.1861 39.7725V35.3725C17.1861 30.7059 15.7194 29.2392 12.1195 29.2392H8.65281V44.7058H13.0528ZM11.5861 22.1726C14.5195 22.1726 16.2528 20.8393 16.2528 16.8393V14.0392C16.2528 10.4392 15.0528 8.8393 12.2528 8.8393H8.51947V22.0392H11.5861V22.1726ZM0.652832 1.63928H12.5195C20.6528 1.63928 24.2528 5.37262 24.2528 13.2393V15.2393C24.2528 20.4393 22.6528 23.6392 19.1861 25.1059V25.2392C23.4528 26.7059 25.0528 30.4392 25.0528 35.6392V39.9059C25.0528 47.6392 20.9195 51.7725 13.0528 51.7725H0.652832V1.63928Z" fill="#FCAF16"/>
  <path d="M29.5859 1.63928H37.4526V51.7725H29.5859V1.63928Z" fill="#FCAF16"/>
  <path d="M49.4527 8.83922H41.186V1.63921H65.586V8.83922H57.3193V51.9058H49.4527V8.83922Z" fill="#FCAF16"/>
  <path d="M68.5195 40.3056V13.3723C68.5195 5.63902 72.5195 1.10568 80.1195 1.10568C87.7195 1.10568 91.7195 5.63902 91.7195 13.3723V18.7057H84.2528V12.839C84.2528 9.50572 82.6528 8.17239 80.2528 8.17239C77.8528 8.17239 76.2528 9.50572 76.2528 12.839V40.839C76.2528 44.1723 77.8528 45.3723 80.2528 45.3723C82.6528 45.3723 84.2528 44.039 84.2528 40.839V33.5057H91.7195V40.3056C91.7195 48.0389 87.7195 52.5723 80.1195 52.5723C72.5195 52.5723 68.5195 48.0389 68.5195 40.3056Z" fill="#FCAF16"/>
  <path d="M112.119 40.4389V13.1056C112.119 9.50566 110.519 8.17239 107.986 8.17239C105.452 8.17239 103.853 9.50566 103.853 13.1056V40.4389C103.853 44.0389 105.452 45.3723 107.986 45.3723C110.519 45.3723 112.119 44.0389 112.119 40.4389ZM95.9858 39.9056V13.5057C95.9858 5.50573 100.252 0.839077 107.986 0.839077C115.719 0.839077 119.986 5.3724 119.986 13.5057V39.9056C119.986 47.9056 115.719 52.5723 107.986 52.5723C100.252 52.5723 95.9858 48.0389 95.9858 39.9056Z" fill="#FCAF16"/>
  <path d="M125.186 1.63928H133.053V51.7725H125.186V1.63928Z" fill="#FCAF16"/>
  <path d="M139.052 1.63928H148.786L156.786 31.6392V1.63928H163.852V51.7725H155.852L146.119 15.1059V51.7725H139.052V1.63928Z" fill="#FCAF16"/>
  <path d="M175.719 8.83922H167.453V1.63921H191.853V8.83922H183.586V51.9058H175.719V8.83922Z" fill="#58595B"/>
  <path d="M206.386 23.2392C209.319 23.2392 211.053 21.9058 211.053 17.9058V14.0392C211.053 10.4392 209.853 8.83922 207.053 8.83922H203.453V23.2392H206.386ZM195.719 1.63921H207.453C215.586 1.63921 219.186 5.37255 219.186 13.2392V16.3058C219.186 21.5058 217.586 24.7058 213.986 26.1725V26.3058C217.986 27.5058 219.186 31.2391 219.186 36.9725V45.7724C219.186 48.1724 219.319 50.0391 219.986 51.9058H211.986C211.586 50.5724 211.319 49.7724 211.319 45.7724V36.5725C211.319 31.9058 209.986 30.4391 206.386 30.4391H203.719V51.9058H195.853V1.63921H195.719Z" fill="#58595B"/>
  <path d="M224.519 1.63921H245.986V8.83922H232.386V22.0391H243.186V29.2392H232.386V44.7057H245.986V51.9058H224.519V1.63921Z" fill="#58595B"/>
  <path d="M265.186 35.2391L261.586 9.90587L258.119 35.2391H265.186ZM266.252 42.0391H257.186L255.852 51.9058H248.519L256.652 1.77251H267.319L275.452 51.9058H267.586L266.252 42.0391Z" fill="#58595B"/>
  <path d="M277.585 39.9056V37.1056H285.052V40.5723C285.052 44.1723 286.652 45.5056 289.185 45.5056C291.719 45.5056 293.319 44.1722 293.319 40.4389C293.319 36.3056 291.585 33.639 286.385 29.239C279.852 23.3723 277.585 19.239 277.585 13.5057C277.585 5.63906 281.719 0.972377 289.319 0.972377C296.919 0.972377 300.785 5.5057 300.785 13.639V15.639H293.319V13.1056C293.319 9.50566 291.852 8.17239 289.319 8.17239C286.785 8.17239 285.319 9.50569 285.319 12.9723C285.319 16.5723 287.052 19.239 292.252 23.7723C298.785 29.6389 301.052 33.639 301.052 39.9056C301.052 48.0389 296.919 52.7056 289.185 52.7056C281.452 52.7056 277.585 48.0389 277.585 39.9056Z" fill="#58595B"/>
  <path d="M305.319 39.9056V1.63904H313.186V40.4389C313.186 44.0389 314.652 45.3723 317.186 45.3723C319.719 45.3723 321.186 44.0389 321.186 40.4389V1.63904H328.785V39.9056C328.785 47.9056 324.785 52.5723 317.052 52.5723C309.319 52.5723 305.319 48.0389 305.319 39.9056Z" fill="#58595B"/>
  <path d="M345.052 23.2392C347.985 23.2392 349.719 21.9058 349.719 17.9058V14.0392C349.719 10.4392 348.519 8.83922 345.719 8.83922H342.119V23.2392H345.052ZM334.385 1.63921H346.119C354.252 1.63921 357.852 5.37255 357.852 13.2392V16.3058C357.852 21.5058 356.252 24.7058 352.652 26.1725V26.3058C356.652 27.5058 357.852 31.2391 357.852 36.9725V45.7724C357.852 48.1724 357.985 50.0391 358.652 51.9058H350.652C350.252 50.5724 349.985 49.7724 349.985 45.7724V36.5725C349.985 31.9058 348.652 30.4391 345.052 30.4391H342.385V51.9058H334.519V1.63921H334.385Z" fill="#58595B"/>
  <path d="M363.185 1.63928H371.052V51.7725H363.185V1.63928Z" fill="#58595B"/>
  <path d="M377.052 1.63921H398.518V8.83922H384.918V22.0391H395.718V29.2392H384.918V44.7057H398.518V51.9058H377.052V1.63921Z" fill="#58595B"/>
  <path d="M401.452 39.9056V37.1056H408.918V40.5723C408.918 44.1723 410.518 45.5056 413.052 45.5056C415.585 45.5056 417.185 44.1722 417.185 40.4389C417.185 36.3056 415.452 33.639 410.252 29.239C403.718 23.3723 401.452 19.239 401.452 13.5057C401.452 5.63906 405.585 0.972377 413.185 0.972377C420.918 0.972377 424.652 5.5057 424.652 13.639V15.639H417.185V13.1056C417.185 9.50566 415.718 8.17239 413.185 8.17239C410.652 8.17239 409.185 9.50569 409.185 12.9723C409.185 16.5723 410.918 19.239 416.118 23.7723C422.652 29.6389 424.918 33.639 424.918 39.9056C424.918 48.0389 420.785 52.7056 413.052 52.7056C405.318 52.7056 401.452 48.0389 401.452 39.9056Z" fill="#58595B"/>
  <path d="M429.452 1.63928H439.185L447.185 31.6392V1.63928H454.252V51.7725H446.252L436.518 15.1059V43.2392H429.452V1.63928Z" fill="#C6C6C6"/>
  <path d="M460.118 1.63921H481.585V8.83922H467.985V22.0391H478.785V29.2392H467.985V44.7057H481.585V51.9058H460.118V1.63921Z" fill="#C6C6C6"/>
  <path d="M491.985 8.83922H483.718V1.63921H508.118V8.83922H499.852V51.9058H491.985V8.83922Z" fill="#C6C6C6"/>
  <path d="M429.452 44.8391H436.518V51.9058H429.452V44.8391Z" fill="#FCAF16"/>
</svg>
